<svg xmlns="http://www.w3.org/2000/svg" viewBox="0 0 1200 900" font-family="'Inter', 'SF Pro Display', -apple-system, sans-serif">
  <defs>
    <!-- Gradient backgrounds -->
    <linearGradient id="bg" x1="0%" y1="0%" x2="100%" y2="100%">
      <stop offset="0%" style="stop-color:#0f0f1a"/>
      <stop offset="100%" style="stop-color:#1a1a2e"/>
    </linearGradient>
    <linearGradient id="card" x1="0%" y1="0%" x2="0%" y2="100%">
      <stop offset="0%" style="stop-color:#1e1e35"/>
      <stop offset="100%" style="stop-color:#16162b"/>
    </linearGradient>
    <linearGradient id="accent" x1="0%" y1="0%" x2="100%" y2="0%">
      <stop offset="0%" style="stop-color:#6366f1"/>
      <stop offset="100%" style="stop-color:#8b5cf6"/>
    </linearGradient>
    <linearGradient id="accentGreen" x1="0%" y1="0%" x2="100%" y2="0%">
      <stop offset="0%" style="stop-color:#10b981"/>
      <stop offset="100%" style="stop-color:#34d399"/>
    </linearGradient>
    <linearGradient id="accentAmber" x1="0%" y1="0%" x2="100%" y2="0%">
      <stop offset="0%" style="stop-color:#f59e0b"/>
      <stop offset="100%" style="stop-color:#fbbf24"/>
    </linearGradient>
    <linearGradient id="accentCyan" x1="0%" y1="0%" x2="100%" y2="0%">
      <stop offset="0%" style="stop-color:#06b6d4"/>
      <stop offset="100%" style="stop-color:#22d3ee"/>
    </linearGradient>
    <linearGradient id="progressTrack" x1="0%" y1="0%" x2="100%" y2="0%">
      <stop offset="0%" style="stop-color:#6366f1;stop-opacity:0.3"/>
      <stop offset="100%" style="stop-color:#8b5cf6;stop-opacity:0.1"/>
    </linearGradient>

    <!-- Glow filter -->
    <filter id="glow">
      <feGaussianBlur stdDeviation="3" result="coloredBlur"/>
      <feMerge>
        <feMergeNode in="coloredBlur"/>
        <feMergeNode in="SourceGraphic"/>
      </feMerge>
    </filter>
    <filter id="softGlow">
      <feGaussianBlur stdDeviation="8" result="coloredBlur"/>
      <feMerge>
        <feMergeNode in="coloredBlur"/>
        <feMergeNode in="SourceGraphic"/>
      </feMerge>
    </filter>
    <filter id="shadow">
      <feDropShadow dx="0" dy="4" stdDeviation="8" flood-color="#000" flood-opacity="0.3"/>
    </filter>

    <!-- Animated dash for connectors -->
    <style>
      @keyframes dash { to { stroke-dashoffset: -20; } }
      @keyframes fadeIn { from { opacity: 0; transform: translateY(10px); } to { opacity: 1; transform: translateY(0); } }
      @keyframes pulse { 0%, 100% { opacity: 1; } 50% { opacity: 0.6; } }
      @keyframes progressFill { from { width: 0; } to { width: 100%; } }
      @keyframes slideRight { from { transform: translateX(-20px); opacity: 0; } to { transform: translateX(0); opacity: 1; } }
      @keyframes ripple { 0% { r: 4; opacity: 0.8; } 100% { r: 12; opacity: 0; } }
      .connector { stroke-dasharray: 6 4; animation: dash 0.8s linear infinite; }
      .step-card { filter: url(#shadow); }
      .fade-1 { animation: fadeIn 0.6s ease-out 0.2s both; }
      .fade-2 { animation: fadeIn 0.6s ease-out 0.4s both; }
      .fade-3 { animation: fadeIn 0.6s ease-out 0.6s both; }
      .fade-4 { animation: fadeIn 0.6s ease-out 0.8s both; }
      .fade-5 { animation: fadeIn 0.6s ease-out 1.0s both; }
      .fade-6 { animation: fadeIn 0.6s ease-out 1.2s both; }
      .fade-7 { animation: fadeIn 0.6s ease-out 1.4s both; }
      .fade-8 { animation: fadeIn 0.6s ease-out 1.6s both; }
      .pulse { animation: pulse 2s ease-in-out infinite; }
    </style>
  </defs>

  <!-- Background -->
  <rect width="1200" height="900" fill="url(#bg)"/>

  <!-- Subtle grid pattern -->
  <g opacity="0.03">
    <pattern id="grid" width="40" height="40" patternUnits="userSpaceOnUse">
      <path d="M 40 0 L 0 0 0 40" fill="none" stroke="#fff" stroke-width="0.5"/>
    </pattern>
    <rect width="1200" height="900" fill="url(#grid)"/>
  </g>

  <!-- Title -->
  <text x="600" y="55" text-anchor="middle" fill="#e2e8f0" font-size="28" font-weight="700" letter-spacing="0.5">Onboarding Flow</text>
  <text x="600" y="82" text-anchor="middle" fill="#94a3b8" font-size="14" letter-spacing="1">8 STEPS TO FIRST CAMPAIGN</text>

  <!-- Progress bar background -->
  <rect x="100" y="100" width="1000" height="6" rx="3" fill="url(#progressTrack)"/>
  <!-- Animated progress bar -->
  <rect x="100" y="100" width="0" height="6" rx="3" fill="url(#accent)" filter="url(#glow)">
    <animate attributeName="width" from="0" to="1000" dur="4s" fill="freeze" begin="0.5s"/>
  </rect>
  <!-- Progress dots -->
  <g>
    <circle cx="100" cy="103" r="5" fill="#6366f1" filter="url(#glow)"><animate attributeName="fill" values="#6366f1;#a78bfa;#6366f1" dur="3s" repeatCount="indefinite"/></circle>
    <circle cx="228" cy="103" r="5" fill="#6366f1" opacity="0"><animate attributeName="opacity" from="0" to="1" dur="0.3s" begin="0.8s" fill="freeze"/></circle>
    <circle cx="357" cy="103" r="5" fill="#6366f1" opacity="0"><animate attributeName="opacity" from="0" to="1" dur="0.3s" begin="1.1s" fill="freeze"/></circle>
    <circle cx="485" cy="103" r="5" fill="#6366f1" opacity="0"><animate attributeName="opacity" from="0" to="1" dur="0.3s" begin="1.4s" fill="freeze"/></circle>
    <circle cx="614" cy="103" r="5" fill="#8b5cf6" opacity="0"><animate attributeName="opacity" from="0" to="1" dur="0.3s" begin="1.7s" fill="freeze"/></circle>
    <circle cx="742" cy="103" r="5" fill="#8b5cf6" opacity="0"><animate attributeName="opacity" from="0" to="1" dur="0.3s" begin="2.0s" fill="freeze"/></circle>
    <circle cx="871" cy="103" r="5" fill="#8b5cf6" opacity="0"><animate attributeName="opacity" from="0" to="1" dur="0.3s" begin="2.3s" fill="freeze"/></circle>
    <circle cx="1000" cy="103" r="5" fill="#8b5cf6" opacity="0"><animate attributeName="opacity" from="0" to="1" dur="0.3s" begin="2.6s" fill="freeze"/></circle>
  </g>

  <!-- ===== ROW 1: Steps 1-4 ===== -->

  <!-- Step 1: Sign Up -->
  <g class="step-card fade-1">
    <rect x="50" y="135" width="260" height="200" rx="16" fill="url(#card)" stroke="#2d2d4a" stroke-width="1"/>
    <rect x="50" y="135" width="260" height="4" rx="2" fill="url(#accent)"/>
    <!-- Step number badge -->
    <circle cx="80" cy="165" r="14" fill="#6366f1" opacity="0.15"/>
    <text x="80" y="170" text-anchor="middle" fill="#a78bfa" font-size="13" font-weight="700">1</text>
    <text x="102" y="170" fill="#e2e8f0" font-size="15" font-weight="600">Sign Up</text>
    <!-- Icon: user -->
    <g transform="translate(160, 200)">
      <circle cx="20" cy="10" r="10" fill="none" stroke="#6366f1" stroke-width="1.5"/>
      <path d="M0 35 Q0 20 20 20 Q40 20 40 35" fill="none" stroke="#6366f1" stroke-width="1.5"/>
    </g>
    <!-- Fields -->
    <rect x="75" y="255" width="210" height="28" rx="6" fill="#252545" stroke="#3d3d5c" stroke-width="0.5"/>
    <text x="85" y="273" fill="#64748b" font-size="11">email@company.com</text>
    <rect x="75" y="290" width="210" height="28" rx="6" fill="#252545" stroke="#3d3d5c" stroke-width="0.5"/>
    <text x="85" y="308" fill="#64748b" font-size="11">password</text>
  </g>

  <!-- Connector 1->2 -->
  <line x1="310" y1="235" x2="330" y2="235" stroke="#6366f1" stroke-width="1.5" class="connector" opacity="0.5"/>

  <!-- Step 2: Connect Email -->
  <g class="step-card fade-2">
    <rect x="330" y="135" width="260" height="200" rx="16" fill="url(#card)" stroke="#2d2d4a" stroke-width="1"/>
    <rect x="330" y="135" width="260" height="4" rx="2" fill="url(#accent)"/>
    <circle cx="360" cy="165" r="14" fill="#6366f1" opacity="0.15"/>
    <text x="360" y="170" text-anchor="middle" fill="#a78bfa" font-size="13" font-weight="700">2</text>
    <text x="382" y="170" fill="#e2e8f0" font-size="15" font-weight="600">Connect Email</text>
    <!-- Gmail / Outlook buttons -->
    <rect x="355" y="200" width="210" height="40" rx="8" fill="#252545" stroke="#3d3d5c" stroke-width="0.5"/>
    <circle cx="382" cy="220" r="10" fill="#ea4335" opacity="0.8"/>
    <text x="400" y="225" fill="#e2e8f0" font-size="12" font-weight="500">Connect Gmail</text>
    <text x="545" y="225" fill="#10b981" font-size="11">OAuth2</text>

    <rect x="355" y="250" width="210" height="40" rx="8" fill="#252545" stroke="#3d3d5c" stroke-width="0.5"/>
    <circle cx="382" cy="270" r="10" fill="#0078d4" opacity="0.8"/>
    <text x="400" y="275" fill="#e2e8f0" font-size="12" font-weight="500">Connect Outlook</text>
    <text x="545" y="275" fill="#10b981" font-size="11">OAuth2</text>

    <text x="460" y="315" text-anchor="middle" fill="#475569" font-size="10">Inbox monitoring + sending</text>
  </g>

  <!-- Connector 2->3 -->
  <line x1="590" y1="235" x2="610" y2="235" stroke="#6366f1" stroke-width="1.5" class="connector" opacity="0.5"/>

  <!-- Step 3: Define ICP -->
  <g class="step-card fade-3">
    <rect x="610" y="135" width="260" height="200" rx="16" fill="url(#card)" stroke="#2d2d4a" stroke-width="1"/>
    <rect x="610" y="135" width="260" height="4" rx="2" fill="url(#accentCyan)"/>
    <circle cx="640" cy="165" r="14" fill="#06b6d4" opacity="0.15"/>
    <text x="640" y="170" text-anchor="middle" fill="#22d3ee" font-size="13" font-weight="700">3</text>
    <text x="662" y="170" fill="#e2e8f0" font-size="15" font-weight="600">Define ICP</text>
    <!-- ICP fields -->
    <g transform="translate(635, 190)">
      <rect width="210" height="26" rx="5" fill="#252545" stroke="#3d3d5c" stroke-width="0.5"/>
      <text x="10" y="17" fill="#94a3b8" font-size="10">Industry</text>
      <text x="140" y="17" fill="#22d3ee" font-size="10">SaaS, Fintech</text>

      <rect y="32" width="210" height="26" rx="5" fill="#252545" stroke="#3d3d5c" stroke-width="0.5"/>
      <text x="10" y="49" fill="#94a3b8" font-size="10">Company Size</text>
      <text x="140" y="49" fill="#22d3ee" font-size="10">50-200</text>

      <rect y="64" width="210" height="26" rx="5" fill="#252545" stroke="#3d3d5c" stroke-width="0.5"/>
      <text x="10" y="81" fill="#94a3b8" font-size="10">Tech Stack</text>
      <text x="140" y="81" fill="#22d3ee" font-size="10">React, AWS</text>

      <rect y="96" width="210" height="26" rx="5" fill="#252545" stroke="#3d3d5c" stroke-width="0.5"/>
      <text x="10" y="113" fill="#94a3b8" font-size="10">Pain Points</text>
      <text x="140" y="113" fill="#22d3ee" font-size="10">Scaling ops</text>
    </g>
  </g>

  <!-- Connector 3->4 -->
  <line x1="870" y1="235" x2="890" y2="235" stroke="#06b6d4" stroke-width="1.5" class="connector" opacity="0.5"/>

  <!-- Step 4: Set Value Prop -->
  <g class="step-card fade-4">
    <rect x="890" y="135" width="260" height="200" rx="16" fill="url(#card)" stroke="#2d2d4a" stroke-width="1"/>
    <rect x="890" y="135" width="260" height="4" rx="2" fill="url(#accentCyan)"/>
    <circle cx="920" cy="165" r="14" fill="#06b6d4" opacity="0.15"/>
    <text x="920" y="170" text-anchor="middle" fill="#22d3ee" font-size="13" font-weight="700">4</text>
    <text x="942" y="170" fill="#e2e8f0" font-size="15" font-weight="600">Set Value Prop</text>
    <!-- Value prop card -->
    <rect x="915" y="200" width="210" height="110" rx="8" fill="#252545" stroke="#3d3d5c" stroke-width="0.5"/>
    <text x="925" y="222" fill="#94a3b8" font-size="10">Differentiator 1</text>
    <text x="925" y="242" fill="#e2e8f0" font-size="11">"We reduce deploy time by 10x"</text>
    <line x1="925" y="255" x2="1115" y2="255" stroke="#3d3d5c" stroke-width="0.5"/>
    <text x="925" y="275" fill="#94a3b8" font-size="10">Differentiator 2</text>
    <text x="925" y="295" fill="#e2e8f0" font-size="11">"Zero-config infrastructure"</text>
  </g>

  <!-- ===== Curved connector row 1 -> row 2 ===== -->
  <path d="M1020 340 Q1020 380 980 380 L220 380 Q180 380 180 420" stroke="#8b5cf6" stroke-width="1.5" fill="none" class="connector" opacity="0.4"/>
  <polygon points="180,420 175,410 185,410" fill="#8b5cf6" opacity="0.6">
    <animate attributeName="opacity" values="0.3;0.8;0.3" dur="2s" repeatCount="indefinite"/>
  </polygon>

  <!-- ===== ROW 2: Steps 5-8 ===== -->

  <!-- Step 5: Clone Voice -->
  <g class="step-card fade-5">
    <rect x="50" y="420" width="260" height="220" rx="16" fill="url(#card)" stroke="#2d2d4a" stroke-width="1"/>
    <rect x="50" y="420" width="260" height="4" rx="2" fill="url(#accentAmber)"/>
    <circle cx="80" cy="450" r="14" fill="#f59e0b" opacity="0.15"/>
    <text x="80" y="455" text-anchor="middle" fill="#fbbf24" font-size="13" font-weight="700">5</text>
    <text x="102" y="455" fill="#e2e8f0" font-size="15" font-weight="600">Clone Voice</text>
    <text x="102" y="472" fill="#94a3b8" font-size="10">Upload 30-50 rep emails</text>
    <!-- Upload area -->
    <rect x="75" y="485" width="210" height="60" rx="10" fill="#252545" stroke="#f59e0b" stroke-width="1" stroke-dasharray="4 3" opacity="0.6"/>
    <text x="180" y="515" text-anchor="middle" fill="#fbbf24" font-size="20">+</text>
    <text x="180" y="535" text-anchor="middle" fill="#94a3b8" font-size="10">Drop .eml or .csv files</text>
    <!-- Voice profile preview -->
    <rect x="75" y="555" width="210" height="70" rx="8" fill="#252545" stroke="#3d3d5c" stroke-width="0.5"/>
    <text x="85" y="573" fill="#fbbf24" font-size="10" font-weight="600">VOICE PROFILE</text>
    <text x="85" y="590" fill="#94a3b8" font-size="9">Tone: direct, data-driven</text>
    <text x="85" y="604" fill="#94a3b8" font-size="9">Style: short punchy lines</text>
    <text x="85" y="618" fill="#10b981" font-size="9">Confidence: 88%</text>
    <!-- Confidence bar -->
    <rect x="170" y="610" width="100" height="4" rx="2" fill="#1a1a2e"/>
    <rect x="170" y="610" width="0" height="4" rx="2" fill="url(#accentGreen)">
      <animate attributeName="width" from="0" to="88" dur="1.5s" begin="2s" fill="freeze"/>
    </rect>
  </g>

  <!-- Connector 5->6 -->
  <line x1="310" y1="530" x2="330" y2="530" stroke="#f59e0b" stroke-width="1.5" class="connector" opacity="0.5"/>

  <!-- Step 6: Choose Autonomy -->
  <g class="step-card fade-6">
    <rect x="330" y="420" width="260" height="220" rx="16" fill="url(#card)" stroke="#2d2d4a" stroke-width="1"/>
    <rect x="330" y="420" width="260" height="4" rx="2" fill="url(#accentAmber)"/>
    <circle cx="360" cy="450" r="14" fill="#f59e0b" opacity="0.15"/>
    <text x="360" y="455" text-anchor="middle" fill="#fbbf24" font-size="13" font-weight="700">6</text>
    <text x="382" y="455" fill="#e2e8f0" font-size="15" font-weight="600">Choose Autonomy</text>

    <!-- Autonomy level cards -->
    <rect x="355" y="480" width="100" height="50" rx="6" fill="#252545" stroke="#3d3d5c" stroke-width="0.5"/>
    <text x="405" y="500" text-anchor="middle" fill="#94a3b8" font-size="11" font-weight="600">L1</text>
    <text x="405" y="518" text-anchor="middle" fill="#64748b" font-size="8">Approve all</text>

    <rect x="465" y="480" width="100" height="50" rx="6" fill="#252545" stroke="#8b5cf6" stroke-width="1.5"/>
    <text x="515" y="500" text-anchor="middle" fill="#a78bfa" font-size="11" font-weight="700">L2</text>
    <text x="515" y="518" text-anchor="middle" fill="#a78bfa" font-size="8">Recommended</text>
    <!-- Selected indicator -->
    <circle cx="555" cy="485" r="4" fill="#10b981">
      <animate attributeName="r" values="3;5;3" dur="2s" repeatCount="indefinite"/>
    </circle>

    <rect x="355" y="540" width="100" height="50" rx="6" fill="#252545" stroke="#3d3d5c" stroke-width="0.5"/>
    <text x="405" y="560" text-anchor="middle" fill="#94a3b8" font-size="11" font-weight="600">L3</text>
    <text x="405" y="578" text-anchor="middle" fill="#64748b" font-size="8">Auto-send</text>

    <rect x="465" y="540" width="100" height="50" rx="6" fill="#252545" stroke="#3d3d5c" stroke-width="0.5"/>
    <text x="515" y="560" text-anchor="middle" fill="#94a3b8" font-size="11" font-weight="600">L4</text>
    <text x="515" y="578" text-anchor="middle" fill="#64748b" font-size="8">Full auto</text>

    <text x="460" y="618" text-anchor="middle" fill="#475569" font-size="9">L2: approve first touch only</text>
  </g>

  <!-- Connector 6->7 -->
  <line x1="590" y1="530" x2="610" y2="530" stroke="#f59e0b" stroke-width="1.5" class="connector" opacity="0.5"/>

  <!-- Step 7: Upload Leads -->
  <g class="step-card fade-7">
    <rect x="610" y="420" width="260" height="220" rx="16" fill="url(#card)" stroke="#2d2d4a" stroke-width="1"/>
    <rect x="610" y="420" width="260" height="4" rx="2" fill="url(#accentGreen)"/>
    <circle cx="640" cy="450" r="14" fill="#10b981" opacity="0.15"/>
    <text x="640" y="455" text-anchor="middle" fill="#34d399" font-size="13" font-weight="700">7</text>
    <text x="662" y="455" fill="#e2e8f0" font-size="15" font-weight="600">Upload Leads</text>
    <text x="662" y="472" fill="#94a3b8" font-size="10">CSV with accounts</text>
    <!-- CSV preview table -->
    <rect x="635" y="485" width="210" height="130" rx="8" fill="#252545" stroke="#3d3d5c" stroke-width="0.5"/>
    <!-- Header -->
    <rect x="635" y="485" width="210" height="24" rx="8" fill="#1a1a2e"/>
    <text x="650" y="501" fill="#34d399" font-size="9" font-weight="600">Company</text>
    <text x="735" y="501" fill="#34d399" font-size="9" font-weight="600">Domain</text>
    <text x="800" y="501" fill="#34d399" font-size="9" font-weight="600">Contact</text>
    <!-- Rows -->
    <text x="650" y="524" fill="#e2e8f0" font-size="9">Acme Corp</text>
    <text x="735" y="524" fill="#94a3b8" font-size="9">acme.io</text>
    <text x="800" y="524" fill="#94a3b8" font-size="9">j@acme.io</text>
    <line x1="645" y1="530" x2="835" y2="530" stroke="#2d2d4a" stroke-width="0.5"/>

    <text x="650" y="546" fill="#e2e8f0" font-size="9">TechStart</text>
    <text x="735" y="546" fill="#94a3b8" font-size="9">techstart.co</text>
    <text x="800" y="546" fill="#94a3b8" font-size="9">m@tech.co</text>
    <line x1="645" y1="552" x2="835" y2="552" stroke="#2d2d4a" stroke-width="0.5"/>

    <text x="650" y="568" fill="#e2e8f0" font-size="9">DataFlow</text>
    <text x="735" y="568" fill="#94a3b8" font-size="9">dataflow.dev</text>
    <text x="800" y="568" fill="#94a3b8" font-size="9">s@df.dev</text>
    <line x1="645" y1="574" x2="835" y2="574" stroke="#2d2d4a" stroke-width="0.5"/>

    <text x="650" y="590" fill="#64748b" font-size="9">+ 47 more rows</text>

    <!-- Count badge -->
    <rect x="770" y="622" width="75" height="22" rx="11" fill="#10b981" opacity="0.15"/>
    <text x="807" y="637" text-anchor="middle" fill="#34d399" font-size="10" font-weight="600">50 leads</text>
  </g>

  <!-- Connector 7->8 -->
  <line x1="870" y1="530" x2="890" y2="530" stroke="#10b981" stroke-width="1.5" class="connector" opacity="0.5"/>

  <!-- Step 8: Review First Email -->
  <g class="step-card fade-8">
    <rect x="890" y="420" width="260" height="220" rx="16" fill="url(#card)" stroke="#2d2d4a" stroke-width="1"/>
    <rect x="890" y="420" width="260" height="4" rx="2" fill="url(#accentGreen)"/>
    <circle cx="920" cy="450" r="14" fill="#10b981" opacity="0.15"/>
    <text x="920" y="455" text-anchor="middle" fill="#34d399" font-size="13" font-weight="700">8</text>
    <text x="942" y="455" fill="#e2e8f0" font-size="15" font-weight="600">Review First Email</text>
    <!-- Email preview -->
    <rect x="915" y="480" width="210" height="120" rx="8" fill="#252545" stroke="#3d3d5c" stroke-width="0.5"/>
    <text x="925" y="498" fill="#94a3b8" font-size="9">To: j@acme.io</text>
    <text x="925" y="514" fill="#a78bfa" font-size="9" font-weight="600">Re: Your Series B congrats!</text>
    <line x1="925" y1="522" x2="1115" y2="522" stroke="#2d2d4a" stroke-width="0.5"/>
    <text x="925" y="538" fill="#e2e8f0" font-size="9">Hey John, saw the news about</text>
    <text x="925" y="552" fill="#e2e8f0" font-size="9">Acme's Series B. We help teams</text>
    <text x="925" y="566" fill="#e2e8f0" font-size="9">like yours scale 10x faster...</text>
    <text x="925" y="586" fill="#94a3b8" font-size="9" font-style="italic">Reply yes/no if curious?</text>
    <!-- Action buttons -->
    <rect x="915" y="610" width="100" height="30" rx="8" fill="url(#accentGreen)"/>
    <text x="965" y="629" text-anchor="middle" fill="#fff" font-size="11" font-weight="600">Approve</text>
    <rect x="1025" y="610" width="100" height="30" rx="8" fill="#252545" stroke="#3d3d5c" stroke-width="0.5"/>
    <text x="1075" y="629" text-anchor="middle" fill="#94a3b8" font-size="11">Edit</text>
  </g>

  <!-- ===== Bottom: Launch arrow ===== -->
  <g opacity="0">
    <animate attributeName="opacity" from="0" to="1" dur="0.5s" begin="3s" fill="freeze"/>
    <!-- Arrow down from step 8 -->
    <path d="M1020 645 L1020 680 Q1020 700 1000 700 L620 700 Q600 700 600 720 L600 740" stroke="url(#accentGreen)" stroke-width="2" fill="none" class="connector"/>
    <!-- Launch card -->
    <rect x="440" y="745" width="320" height="70" rx="16" fill="url(#card)" stroke="#10b981" stroke-width="1.5" filter="url(#shadow)"/>
    <rect x="440" y="745" width="320" height="70" rx="16" fill="#10b981" opacity="0.05"/>
    <!-- Rocket icon -->
    <text x="475" y="790" fill="#34d399" font-size="24">&#9650;</text>
    <text x="510" y="778" fill="#e2e8f0" font-size="16" font-weight="700">Campaign Live!</text>
    <text x="510" y="798" fill="#94a3b8" font-size="11">Research + outreach begins automatically</text>
    <!-- Pulsing glow -->
    <circle cx="600" cy="780" r="4" fill="#10b981" opacity="0">
      <animate attributeName="r" values="30;60;30" dur="3s" repeatCount="indefinite"/>
      <animate attributeName="opacity" values="0.1;0;0.1" dur="3s" repeatCount="indefinite"/>
    </circle>
  </g>

  <!-- Phase labels -->
  <g opacity="0.5">
    <text x="180" y="860" text-anchor="middle" fill="#6366f1" font-size="9" font-weight="600" letter-spacing="1">ACCOUNT SETUP</text>
    <line x1="65" y1="850" x2="295" y2="850" stroke="#6366f1" stroke-width="0.5" stroke-dasharray="3 2"/>
    <text x="460" y="860" text-anchor="middle" fill="#06b6d4" font-size="9" font-weight="600" letter-spacing="1">CONFIGURATION</text>
    <line x1="345" y1="850" x2="575" y2="850" stroke="#06b6d4" stroke-width="0.5" stroke-dasharray="3 2"/>
    <text x="740" y="860" text-anchor="middle" fill="#f59e0b" font-size="9" font-weight="600" letter-spacing="1">PERSONALIZATION</text>
    <line x1="625" y1="850" x2="855" y2="850" stroke="#f59e0b" stroke-width="0.5" stroke-dasharray="3 2"/>
    <text x="1020" y="860" text-anchor="middle" fill="#10b981" font-size="9" font-weight="600" letter-spacing="1">LAUNCH</text>
    <line x1="905" y1="850" x2="1135" y2="850" stroke="#10b981" stroke-width="0.5" stroke-dasharray="3 2"/>
  </g>
</svg>